<?xml version="1.0" standalone="no"?>
<!DOCTYPE svg PUBLIC "-//W3C//DTD SVG 20010904//EN"
 "http://www.w3.org/TR/2001/REC-SVG-20010904/DTD/svg10.dtd">
<svg version="1.0" xmlns="http://www.w3.org/2000/svg"
 width="640.000000pt" height="1280.000000pt" viewBox="0 0 640.000000 1280.000000"
 preserveAspectRatio="xMidYMid meet">
<metadata>
Created by potrace 1.15, written by Peter Selinger 2001-2017
</metadata>
<g transform="translate(0.000000,1280.000000) scale(0.100000,-0.100000)"
fill="white" stroke="none">
<path d="M2925 12766 c-137 -49 -204 -61 -257 -48 -73 19 -75 10 -54 -170 9
-84 20 -165 23 -180 2 -16 1 -28 -4 -28 -10 0 -37 25 -56 52 -8 12 -42 22
-111 33 -54 9 -100 14 -103 11 -2 -2 -11 -31 -18 -65 -13 -54 -13 -68 1 -123
9 -35 17 -64 19 -66 1 -1 48 7 104 18 56 11 104 20 107 20 2 0 4 6 4 13 0 20
49 62 59 51 11 -11 31 -376 21 -387 -7 -7 -53 39 -62 62 -5 15 -202 40 -210
26 -9 -15 -30 -95 -30 -115 1 -24 23 -114 32 -123 9 -10 204 23 208 35 9 22
55 67 63 62 17 -10 5 -404 -13 -404 -11 0 -44 33 -57 58 -8 15 -29 22 -105 32
-53 7 -99 12 -103 12 -5 0 -15 -29 -25 -63 -15 -59 -15 -68 0 -126 19 -73 13
-71 142 -45 66 13 87 22 94 37 5 11 19 28 32 38 l24 18 0 -52 c0 -52 1 -54 65
-113 70 -66 106 -129 124 -216 9 -41 9 -314 1 -1090 -16 -1619 -29 -3099 -36
-4015 l-6 -840 -27 -30 c-15 -16 -42 -53 -60 -81 -42 -69 -129 -150 -188 -175
-154 -68 -333 16 -419 194 -62 130 -67 274 -15 423 36 101 23 146 -41 146 -74
0 -235 -117 -335 -243 -208 -262 -322 -577 -342 -939 -19 -343 28 -598 183
-988 95 -241 105 -271 116 -359 25 -198 -41 -356 -265 -633 -220 -272 -352
-539 -406 -825 -18 -92 -18 -331 0 -420 36 -182 132 -398 227 -509 193 -226
534 -415 934 -519 335 -87 725 -124 1180 -114 595 15 994 95 1352 273 315 156
528 375 638 655 104 263 106 613 5 916 -78 234 -239 493 -448 720 -146 159
-220 396 -188 598 15 94 41 170 116 345 113 264 141 375 152 606 13 293 -52
551 -205 809 -54 92 -165 237 -241 315 -104 108 -138 96 -162 -55 -29 -190
-100 -303 -233 -373 -44 -23 -63 -26 -141 -26 -71 0 -100 5 -138 22 -76 34
-131 78 -188 151 -29 36 -61 73 -71 81 -20 17 -22 67 -48 1045 -6 226 -15 572
-20 770 -5 198 -14 532 -20 743 -21 782 -30 1157 -40 1512 -5 201 -14 543 -20
760 -6 217 -15 554 -21 748 -14 460 -8 489 118 609 63 59 66 64 72 119 l6 58
28 -33 c15 -18 27 -36 27 -40 0 -8 208 -47 213 -40 1 2 9 31 17 64 13 54 13
67 -1 125 -9 36 -20 64 -25 64 -5 -1 -49 -7 -99 -14 -87 -12 -91 -13 -126 -53
-21 -23 -40 -39 -44 -35 -15 15 -35 408 -20 408 8 0 42 -36 53 -56 7 -13 36
-23 99 -35 126 -25 118 -28 136 46 15 60 15 70 0 130 -12 51 -20 64 -32 61 -9
-2 -56 -10 -104 -17 -68 -10 -90 -17 -98 -31 -12 -23 -46 -58 -56 -58 -7 0 4
307 13 363 4 20 10 37 15 37 14 0 49 -33 49 -47 0 -6 5 -15 12 -19 11 -7 211
-46 213 -41 0 1 8 30 16 64 14 55 14 68 0 128 l-15 66 -36 -5 c-157 -23 -179
-28 -185 -46 -7 -23 -43 -55 -52 -46 -4 3 3 70 15 149 25 163 28 217 10 218
-7 0 -39 0 -71 -1 -78 -2 -159 16 -237 54 -63 30 -105 35 -190 26 -14 -1 -45
0 -70 4 -37 6 -63 1 -145 -28z"/>
</g>
</svg>
