<?xml version="1.0" standalone="no"?>
<!DOCTYPE svg PUBLIC "-//W3C//DTD SVG 20010904//EN"
 "http://www.w3.org/TR/2001/REC-SVG-20010904/DTD/svg10.dtd">
<svg version="1.0" xmlns="http://www.w3.org/2000/svg"
 width="1280.000000pt" height="923.000000pt" viewBox="0 0 1280.000000 923.000000"
 preserveAspectRatio="xMidYMid meet">
<metadata>
Created by potrace 1.15, written by Peter Selinger 2001-2017
</metadata>
<g transform="translate(0.000000,923.000000) scale(0.100000,-0.100000)"
fill="white" stroke="none">
<path d="M5965 9224 c-353 -21 -579 -42 -823 -75 -1278 -172 -2506 -621 -3596
-1315 -510 -324 -998 -708 -1414 -1110 l-133 -129 367 -367 366 -368 132 126
c158 152 423 381 602 522 1012 788 2200 1322 3457 1552 273 51 549 85 882 112
239 19 899 16 1155 -6 689 -58 1274 -176 1898 -385 1140 -380 2165 -1007 3024
-1850 l178 -174 347 341 c192 187 358 351 371 364 l22 25 -192 189 c-1296
1272 -2974 2128 -4764 2428 -290 49 -556 81 -884 106 -133 11 -879 21 -995 14z"/>
<path d="M6015 7424 c-692 -35 -1283 -138 -1892 -330 -1066 -335 -2075 -935
-2864 -1702 l-120 -117 375 -374 374 -374 149 138 c919 854 2010 1400 3213
1609 575 99 1256 115 1828 41 1351 -175 2595 -781 3567 -1736 l150 -148 380
375 380 374 -155 151 c-1256 1223 -2793 1929 -4520 2074 -175 15 -714 27 -865
19z"/>
<path d="M6030 5620 c-1178 -60 -2292 -494 -3205 -1249 -130 -107 -405 -360
-405 -372 0 -5 158 -169 351 -364 l351 -354 136 126 c459 423 937 721 1497
931 1046 394 2225 370 3260 -65 526 -221 975 -523 1412 -947 l133 -128 356
353 356 354 -164 160 c-792 776 -1777 1285 -2868 1479 -355 64 -849 95 -1210
76z"/>
<path d="M5943 3755 c-653 -68 -1263 -306 -1789 -697 -188 -140 -437 -369
-420 -385 4 -5 145 -147 312 -316 l305 -308 97 90 c420 388 890 615 1467 708
158 26 612 26 775 0 412 -64 783 -209 1120 -438 148 -100 247 -182 393 -327
l117 -116 318 317 317 318 -145 142 c-575 562 -1262 893 -2085 1003 -158 21
-615 27 -782 9z"/>
<path d="M6060 2365 c-271 -45 -509 -163 -686 -339 -213 -214 -324 -485 -324
-796 0 -591 403 -1082 990 -1207 117 -25 353 -24 470 0 257 55 455 162 635
342 212 211 325 452 355 753 26 256 -38 521 -175 732 -57 88 -215 249 -300
307 -129 87 -299 159 -460 194 -120 27 -385 34 -505 14z"/>
</g>
</svg>
