<?xml version="1.0" standalone="no"?>
<!DOCTYPE svg PUBLIC "-//W3C//DTD SVG 20010904//EN"
 "http://www.w3.org/TR/2001/REC-SVG-20010904/DTD/svg10.dtd">
<svg version="1.0" xmlns="http://www.w3.org/2000/svg"
 width="982.000000pt" height="1280.000000pt" viewBox="0 0 982.000000 1280.000000"
 preserveAspectRatio="xMidYMid meet">
<metadata>
Created by potrace 1.15, written by Peter Selinger 2001-2017
</metadata>
<g transform="translate(0.000000,1280.000000) scale(0.100000,-0.100000)"
fill="white" stroke="none">
<path d="M4420 12794 c-1636 -57 -2959 -303 -3758 -699 -381 -189 -602 -400
-652 -625 -5 -27 -10 -256 -10 -565 0 -580 0 -581 68 -709 25 -47 67 -100 130
-164 l93 -94 -64 -58 c-115 -106 -192 -227 -216 -338 -7 -35 -11 -227 -11
-570 0 -562 1 -574 57 -689 15 -30 53 -86 85 -124 l58 -69 -58 -69 c-66 -78
-114 -171 -131 -249 -7 -35 -11 -225 -11 -570 0 -562 1 -574 57 -689 15 -30
53 -86 85 -124 l58 -69 -58 -69 c-66 -78 -114 -171 -131 -249 -7 -35 -11 -224
-11 -567 0 -343 4 -532 11 -567 17 -78 65 -171 131 -249 l59 -70 -50 -57 c-27
-31 -65 -86 -85 -122 -65 -121 -66 -126 -66 -702 0 -345 4 -535 11 -570 17
-78 65 -171 131 -249 l59 -70 -50 -57 c-27 -31 -65 -86 -85 -122 -65 -121 -66
-126 -66 -702 0 -343 4 -535 11 -570 47 -220 270 -434 652 -623 738 -367 1887
-597 3432 -687 282 -16 1344 -16 1630 0 1235 71 2184 228 2940 485 221 75 296
106 480 197 393 193 617 405 664 628 14 68 15 1046 1 1123 -14 76 -72 188
-136 264 l-55 64 59 70 c66 78 114 171 131 249 14 68 15 1046 1 1123 -14 76
-73 190 -136 265 l-54 64 58 69 c66 78 114 171 131 249 14 68 15 1046 1 1123
-14 76 -73 190 -136 265 l-54 64 58 69 c32 38 70 94 85 124 56 115 57 127 57
683 0 298 -4 534 -10 565 -14 76 -73 190 -136 265 l-54 64 58 69 c32 38 70 94
85 124 56 115 57 127 57 683 0 296 -4 534 -10 565 -5 30 -28 92 -51 138 -33
67 -60 102 -134 178 l-93 94 91 93 c62 62 104 115 129 162 68 128 68 129 68
706 0 343 -4 535 -11 570 -47 220 -270 434 -652 623 -734 365 -1897 598 -3412
685 -178 11 -1141 20 -1325 14z"/>
</g>
</svg>
