<svg fill="#FFFFFF" xmlns="http://www.w3.org/2000/svg"  viewBox="0 0 24 24" width="480px" height="480px"><path d="M 18 2 L 6 2 C 4.894531 2 4 2.894531 4 4 L 4 20 C 4 21.105469 4.894531 22 6 22 L 18 22 C 19.105469 22 20 21.105469 20 20 L 20 4 C 20 2.894531 19.105469 2 18 2 Z M 18 4 L 18 6 L 17 6 L 17 5 L 15 5 L 15 6 L 12 6 L 12 5 L 10 5 L 10 6 L 9 6 L 9 5 L 7 5 L 7 6 L 6 6 L 6 4 Z M 15 15 L 15 16 L 14 16 L 14 15 L 12 15 L 12 16 L 9 16 L 9 15 L 7 15 L 7 16 L 6 16 L 6 13 L 7 13 L 7 14 L 9 14 L 9 13 L 10 13 L 10 14 L 12 14 L 12 13 L 18 13 L 18 16 L 17 16 L 17 15 Z M 12 11 L 12 10 L 10 10 L 10 11 L 9 11 L 9 10 L 7 10 L 7 11 L 6 11 L 6 8 L 7 8 L 7 9 L 9 9 L 9 8 L 10 8 L 10 9 L 12 9 L 12 8 L 15 8 L 15 9 L 17 9 L 17 8 L 18 8 L 18 11 Z M 6 20 L 6 18 L 7 18 L 7 19 L 9 19 L 9 18 L 12 18 L 12 19 L 14 19 L 14 18 L 15 18 L 15 19 L 17 19 L 17 18 L 18 18 L 18 20 Z"/></svg>