<?xml version="1.0"?><svg fill="#FFFFFF" xmlns="http://www.w3.org/2000/svg"  viewBox="0 0 24 24" width="480px" height="480px">    <path d="M 12 3 A 2 2 0 0 0 10 5 A 2 2 0 0 0 11 6.7285156 L 11 10 L 4 10 C 2.9069372 10 2 10.906937 2 12 L 2 17.269531 A 2 2 0 0 0 1 19 A 2 2 0 0 0 3 21 A 2 2 0 0 0 5 19 A 2 2 0 0 0 4 17.271484 L 4 12 L 8 12 L 8 17.269531 A 2 2 0 0 0 7 19 A 2 2 0 0 0 9 21 A 2 2 0 0 0 11 19 A 2 2 0 0 0 10 17.271484 L 10 12 L 14 12 L 14 17.269531 A 2 2 0 0 0 13 19 A 2 2 0 0 0 15 21 A 2 2 0 0 0 17 19 A 2 2 0 0 0 16 17.271484 L 16 12 L 20 12 L 20 17.269531 A 2 2 0 0 0 19 19 A 2 2 0 0 0 21 21 A 2 2 0 0 0 23 19 A 2 2 0 0 0 22 17.271484 L 22 12 C 22 10.906937 21.093063 10 20 10 L 13 10 L 13 6.7304688 A 2 2 0 0 0 14 5 A 2 2 0 0 0 12 3 z"/></svg>