<?xml version="1.0"?><svg fill="#FFFFFF" xmlns="http://www.w3.org/2000/svg"  viewBox="0 0 24 24" width="480px" height="480px">    <path d="M 6 3 A 2 2 0 0 0 4 5 A 2 2 0 0 0 6 7 A 2 2 0 0 0 8 5 A 2 2 0 0 0 6 3 z M 18 3 A 2 2 0 0 0 16 5 A 2 2 0 0 0 18 7 A 2 2 0 0 0 20 5 A 2 2 0 0 0 18 3 z M 12 7 A 2 2 0 0 0 10 9 A 2 2 0 0 0 12 11 A 2 2 0 0 0 14 9 A 2 2 0 0 0 12 7 z M 6 11 A 2 2 0 0 0 4 13 A 2 2 0 0 0 6 15 A 2 2 0 0 0 8 13 A 2 2 0 0 0 6 11 z M 18 11 A 2 2 0 0 0 16 13 A 2 2 0 0 0 18 15 A 2 2 0 0 0 20 13 A 2 2 0 0 0 18 11 z M 6 17 C 4.665 17 2 17.720781 2 19.050781 L 2 21 L 10 21 L 10 19.050781 C 10 17.720781 7.335 17 6 17 z M 18 17 C 16.665 17 14 17.720781 14 19.050781 L 14 21 L 22 21 L 22 19.050781 C 22 17.720781 19.335 17 18 17 z"/></svg>